<svg xmlns="http://www.w3.org/2000/svg" width="167.343" height="56.779" viewBox="0 0 167.343 56.779">
  <g id="Groupe_2" data-name="Groupe 2" transform="translate(0.019)">
    <path id="Tracé_1" data-name="Tracé 1" d="M162.71,6.049l-.26-.163s-.244-2.667-3.528-1.756a1.565,1.565,0,0,0-1.041-.472c-.65-.016-.992.374-1.024,1.236,0,0-5.48,4.618-5.87,5.089-.407.472-.2,1.61-.2,1.61s-.455.146-.52.472c-.065.341,1.333,1.691.6,3.2a6.764,6.764,0,0,0-1.9-3.951c-1.789-1.854-1.285-2.813-1.691-3.951s-2.049-1.577-2.813-4.26-.911-2.211-2.016-2.2c-1.122.033-4.813.309-6.618-.911.033.065,1.789,4.1,7.545,7.415,0,0,2.406,1.122,2.732,3.122.341,2,1.642,3.642.878,4.228-.764.6-1.593-.667-2.927-1.268a4.917,4.917,0,0,0-1.545-.569s1.22-1.48.114-1.951c-1.089-.472-.732.455-4.927,1.837a26.547,26.547,0,0,0-7.9,4.667,10.129,10.129,0,0,1,3.789.5c1.854.667,2.049.618,2.52.114s3.447-3.919,4.715-3.789c1.268.146,3.138,2.163,4.358,3.22,1.22,1.041,3.041-.244,3.041-.244s.8,2.715,1.984,2.715,6.1-4.049,8.26-8.065a3.527,3.527,0,0,1-.341,1.87c-.472,1.268-1.236,4.52-1.8,5.317-.569.78-2.146,1.61-1.577,2.358.569.732,1.382-.244,1.9-.959a35.742,35.742,0,0,0,2.878-5.691c.618-1.74,1.447-3.041,1.626-3.593a6,6,0,0,0,0-1.756,2.088,2.088,0,0,0,.992-1.171s-.553.634-1.073.569a.273.273,0,0,1,.033-.244,12.508,12.508,0,0,0,1.593-1.5A1.382,1.382,0,0,0,162.71,6.049ZM158.4,8.472a38.082,38.082,0,0,1-4.732,4.26c-.293,0-.878-1.74-.813-2.065s.553.228,1.073,1.317c0,0,2.406-2.228,3.138-3.057s.455-1.317.455-1.317.683.211.878-.081a1.942,1.942,0,0,0-.52-1.951c-.455-.407-.8-.667-.553-1.285s1.122-.309,1.089.1a3.546,3.546,0,0,0,.114,1.447C158.776,6.423,159.572,7.2,158.4,8.472Z" transform="translate(-108.71)" fill="#fff"/>
    <path id="Tracé_2" data-name="Tracé 2" d="M67.5,170.39c-.016,0-.049.016-.065.016-33.61,9.106-63.658,6.146-67.122-6.6-1.789-6.569,3.837-14.455,14.309-21.8-7.756,6.146-11.772,12.748-10.39,18.618C7.253,173.512,35.2,177.984,66.635,170.6,66.911,170.537,67.2,170.471,67.5,170.39Z" transform="translate(0 -118.911)" fill="#fff"/>
    <path id="Tracé_3" data-name="Tracé 3" d="M419.772,27.932c4.211-6.764,3.35-11.285,3.35-11.285a8.646,8.646,0,0,0-.244-1.561C419.967,2.664,393.984-1.938,364,4.322c31.854-7.74,59.545-4.52,62.862,7.707C428.163,16.859,425.463,22.42,419.772,27.932Z" transform="translate(-304.829 -0.111)" fill="#fff"/>
    <g id="Groupe_1" data-name="Groupe 1" transform="translate(24.635 25.707)">
      <path id="Tracé_5" data-name="Tracé 5" d="M154.868,158.2v14.341H163.8v3.024H151.6V158.2Z" transform="translate(-151.6 -158.184)" fill="#fff"/>
      <path id="Tracé_6" data-name="Tracé 6" d="M234.187,158.2h3.122l-1.935,5.577H233Z" transform="translate(-219.764 -158.184)" fill="#fff"/>
      <path id="Tracé_7" data-name="Tracé 7" d="M274.714,172.2h-9.073l-1.5,3.268H260.6l7.789-17.366h3.577l7.789,17.382h-3.577Zm-4.537-10.439-3.22,7.4h6.455Z" transform="translate(-242.876 -158.1)" fill="#fff"/>
      <path id="Tracé_8" data-name="Tracé 8" d="M387.3,188.125l.228,1.415a3.613,3.613,0,0,1,3.447-1.74,4.656,4.656,0,0,1,3.154,1.171L392.76,191.6a3.014,3.014,0,0,0-2.179-.8,2.826,2.826,0,0,0-3.057,3.106v6.439H384.5V188.125Z" transform="translate(-346.63 -182.971)" fill="#fff"/>
      <path id="Tracé_9" data-name="Tracé 9" d="M457.028,182.2l2.228,1.691-1.366,1.74a5.21,5.21,0,0,1,1.285,3.626,4.862,4.862,0,0,1-2.585,4.569,4.137,4.137,0,0,1,2.537,4.049c0,3.366-2.585,5.463-6.13,5.463s-6.2-2.163-6.2-5.463h3.008c0,1.593,1.463,2.634,3.2,2.634s3.106-.943,3.106-2.634-1.594-2.455-3.106-2.455c-3.821,0-6.2-2.325-6.2-6.146a5.958,5.958,0,0,1,6.2-6.2,4.887,4.887,0,0,1,2.8.7Zm-7.219,7.041a3.194,3.194,0,1,0,6.374,0,3.2,3.2,0,1,0-6.374,0Z" transform="translate(-398.8 -178.281)" fill="#fff"/>
      <path id="Tracé_10" data-name="Tracé 10" d="M544.115,194.674a6.358,6.358,0,1,1-6.39-6.374A6.1,6.1,0,0,1,544.115,194.674Zm-9.707,0a3.328,3.328,0,1,0,6.634,0,3.452,3.452,0,0,0-3.317-3.626A3.37,3.37,0,0,0,534.408,194.674Z" transform="translate(-469.644 -183.389)" fill="#fff"/>
      <path id="Tracé_11" data-name="Tracé 11" d="M630.989,201.023v-6.406c0-1.854-1.024-3.268-2.959-3.268a3.215,3.215,0,0,0-3.122,3.415v6.26H621.9V188.779h2.7l.2,1.659a5.506,5.506,0,0,1,4.016-1.837c2.878,0,5.187,2.163,5.187,6v6.423Z" transform="translate(-545.429 -183.641)" fill="#fff"/>
      <path id="Tracé_12" data-name="Tracé 12" d="M718.658,188.208h2.894v12.228h-2.846l-.146-1.789a4.689,4.689,0,0,1-3.967,2.163c-3.626.033-6.293-2.211-6.293-6.5,0-4.211,2.8-6.423,6.374-6.406a4.444,4.444,0,0,1,3.886,1.984Zm-7.333,6.1a3.508,3.508,0,0,0,3.626,3.724c4.764,0,4.764-7.415,0-7.415A3.482,3.482,0,0,0,711.324,194.306Z" transform="translate(-617.78 -183.054)" fill="#fff"/>
      <path id="Tracé_13" data-name="Tracé 13" d="M805.508,189.8v6.406c0,1.854,1.024,3.268,2.959,3.268a3.215,3.215,0,0,0,3.122-3.415v-6.244H814.6V202.06h-2.7l-.2-1.659a5.462,5.462,0,0,1-4.146,1.837c-2.927,0-5.057-2.211-5.057-6v-6.423h3.008Z" transform="translate(-696.663 -184.646)" fill="#fff"/>
      <path id="Tracé_14" data-name="Tracé 14" d="M892.2,168.6v3.48h3.366v2.6h-3.4v5.285a1.523,1.523,0,0,0,1.593,1.74,3.369,3.369,0,0,0,1.463-.374l.846,2.585a6.7,6.7,0,0,1-2.5.52c-2.65.1-4.39-1.415-4.39-4.472v-5.285H886.9v-2.6h2.276v-3.154Z" transform="translate(-767.339 -166.893)" fill="#fff"/>
      <path id="Tracé_15" data-name="Tracé 15" d="M953.922,194.977c.2,1.512,1.512,2.6,3.642,2.6a5.015,5.015,0,0,0,3.268-1.138l1.935,1.9a7.525,7.525,0,0,1-5.252,1.984c-4.211,0-6.715-2.6-6.715-6.52a6.128,6.128,0,0,1,6.5-6.406c4.1,0,6.65,2.537,6.179,7.561h-9.561Zm6.65-2.5c-.2-1.593-1.431-2.374-3.171-2.374a3.28,3.28,0,0,0-3.415,2.374Z" transform="translate(-820.849 -182.636)" fill="#fff"/>
    </g>
  </g>
</svg>
